# 3ds Max Wavefront OBJ Exporter v0.97b - (c)2007 guruware
# File Created: 20.01.2016 13:53:26

mtllib heyho_body01a.mtl

#
# object hayho_body
#

v  -2.9050 1.9988 -3.0442
v  0.0000 1.9988 -4.0605
v  0.0000 3.5850 -0.0189
v  -3.2812 1.9988 2.3767
v  0.0000 1.9988 3.7218
v  2.9050 1.9988 -3.0442
v  3.2812 1.9988 2.3767
v  4.1263 1.9988 0.0097
v  -4.1263 1.9988 0.0097
v  0.0000 11.7875 1.5927
v  0.0000 12.3623 -0.2983
v  -1.7776 11.8605 -0.2678
v  1.7776 11.8605 -0.2678
v  0.0000 12.4098 -2.2178
v  -2.5915 10.9321 -1.4832
v  -0.5978 11.0727 -4.9780
v  0.0000 9.5530 -3.3419
v  2.5915 10.9321 -1.4832
v  0.5978 11.0727 -4.9780
v  -2.2136 9.0943 -2.2846
v  0.0000 10.6258 -4.8183
v  -3.5370 8.8723 -0.0564
v  0.0000 11.6900 -4.8183
v  2.2136 9.0943 -2.2846
v  0.0000 8.9801 -3.4279
v  -1.8727 10.9192 1.7565
v  0.0000 11.1336 -5.3311
v  3.5370 8.8723 -0.0564
v  0.0000 7.2387 -3.4365
v  -2.9569 9.3889 1.7786
v  1.8727 10.9192 1.7565
v  -2.5551 4.3793 -2.9542
v  2.5551 4.3793 -2.9542
v  -1.9171 10.2405 2.8131
v  -2.9075 6.8399 2.2228
v  0.0000 4.4316 -3.8599
v  3.8168 4.2863 0.0031
v  0.0000 9.9021 3.9169
v  0.0000 10.9241 3.1872
v  0.0000 11.6434 1.9543
v  -3.8168 4.2863 0.0031
v  -2.5100 7.8255 3.0781
v  0.0000 4.1540 -3.4621
v  2.9569 9.3889 1.7786
v  3.3119 4.0940 -0.0010
v  2.2816 4.1540 -2.6080
v  -2.2816 4.1540 -2.6080
v  0.0000 7.9629 4.4039
v  1.9171 10.2405 2.8131
v  -3.1537 4.3235 2.1470
v  -1.8593 5.3501 2.8542
v  2.9075 6.8399 2.2228
v  3.1537 4.3235 2.1470
v  2.6910 4.1540 1.9507
v  -3.3119 4.0940 -0.0010
v  -1.7222 5.7705 3.5883
v  2.5100 7.8255 3.0781
v  0.0000 4.5569 3.7102
v  0.0000 4.1540 3.3153
v  -2.6910 4.1540 1.9507
v  0.0000 4.9630 3.6410
v  0.0000 6.1228 4.2869
v  1.7222 5.7705 3.5883
v  1.8593 5.3501 2.8542
v  6.3038 5.7113 0.8789
v  6.3038 5.1237 -0.0014
v  6.6230 5.7121 -0.0014
v  2.9870 4.7135 -0.0018
v  6.3038 6.3008 -0.0014
v  2.9781 5.6858 1.6387
v  2.9692 6.7146 0.0250
v  6.3038 5.7113 -0.8817
v  2.8919 5.6806 -1.6420
v  2.4320 5.6855 0.0113
v  -6.3038 5.7113 0.8789
v  -6.6230 5.7121 -0.0014
v  -6.3038 5.1237 -0.0014
v  -6.3038 6.3008 -0.0014
v  -2.9870 4.7135 -0.0018
v  -2.9692 6.7146 0.0250
v  -2.9781 5.6858 1.6387
v  -6.3038 5.7113 -0.8817
v  -2.8919 5.6806 -1.6420
v  -2.4320 5.6855 0.0113
v  -2.8366 -0.0005 -0.6930
v  -2.7919 -0.0005 -1.8870
v  -0.7709 -0.0005 -1.8870
v  -3.0845 1.3327 -0.7256
v  -0.7242 0.2715 -0.7093
v  -3.4050 0.5435 1.2488
v  -0.6316 -0.0005 1.5711
v  -3.0459 -0.0005 1.5711
v  -1.7806 -0.0005 -2.4409
v  -2.9839 1.3328 -2.0285
v  -1.7797 0.5436 -2.7068
v  -0.4665 0.5435 1.6746
v  -0.5675 1.3328 -2.0285
v  -0.5407 1.3327 -0.7256
v  -3.0532 0.5435 2.1003
v  -3.1112 1.5778 1.7736
v  -1.7753 1.3328 -2.6445
v  -2.9660 2.0626 -0.9973
v  -1.7780 2.0626 -2.1545
v  -1.7912 -0.0005 2.3632
v  -0.5900 2.0626 -0.9973
v  -0.5630 1.5778 1.7736
v  -1.7780 2.0626 0.1710
v  -1.7906 0.5434 2.6660
v  -1.7884 2.1724 1.8921
v  -1.7867 1.3327 2.7529
v  -3.0415 2.5448 -1.0027
v  -1.7780 2.5449 -2.2302
v  -1.7780 2.5448 0.3166
v  -0.5145 2.5448 -1.0027
v  2.8366 -0.0005 -0.6930
v  0.7242 0.2715 -0.7093
v  0.7709 -0.0005 -1.8870
v  0.6316 -0.0005 1.5711
v  2.7919 -0.0005 -1.8870
v  3.0459 -0.0005 1.5711
v  3.0845 1.3327 -0.7256
v  3.4050 0.5435 1.2488
v  0.5675 1.3328 -2.0285
v  0.4665 0.5435 1.6746
v  0.5407 1.3327 -0.7256
v  2.9839 1.3328 -2.0285
v  1.7806 -0.0005 -2.4409
v  1.7797 0.5436 -2.7068
v  3.0532 0.5435 2.1003
v  1.7912 -0.0005 2.3632
v  0.5900 2.0626 -0.9973
v  0.5630 1.5778 1.7736
v  1.7780 2.0626 0.1710
v  2.9660 2.0626 -0.9973
v  3.1112 1.5778 1.7736
v  1.7753 1.3328 -2.6445
v  1.7906 0.5434 2.6660
v  1.7780 2.0626 -2.1545
v  1.7884 2.1724 1.8921
v  1.7867 1.3327 2.7529
v  3.0415 2.5448 -1.0027
v  1.7780 2.5449 -2.2302
v  1.7780 2.5448 0.3166
v  0.5145 2.5448 -1.0027
# 144 vertices

vn 0.1268 -0.9234 0.3624
vn 0.1580 -0.9091 -0.3855
vn -0.1268 -0.9234 0.3624
vn -0.3552 -0.9262 -0.1268
vn -0.1580 -0.9091 -0.3855
vn -0.3560 -0.9236 0.1424
vn 0.3552 -0.9262 -0.1268
vn 0.3560 -0.9236 0.1424
vn 0.0000 0.9568 0.2908
vn 0.0000 0.9880 0.1543
vn -0.4059 0.9131 -0.0397
vn 0.4059 0.9131 -0.0397
vn 0.0000 0.9752 -0.2212
vn -0.7491 0.3835 -0.5402
vn -0.7428 0.0012 -0.6695
vn 0.0000 -0.3173 -0.9483
vn 0.7491 0.3835 -0.5402
vn 0.7428 0.0012 -0.6695
vn -0.6498 0.1531 -0.7445
vn 0.0000 -0.7791 -0.6269
vn -0.9728 0.2231 -0.0621
vn 0.0000 0.8941 -0.4479
vn 0.6498 0.1531 -0.7445
vn 0.0000 0.0733 -0.9973
vn -0.6082 0.7144 0.3461
vn -0.8411 0.5068 0.1887
vn -0.0000 0.0102 -0.9999
vn 0.9728 0.2231 -0.0621
vn 0.0000 0.1177 -0.9931
vn -0.8858 0.3347 0.3213
vn -0.7298 0.6323 0.2598
vn 0.8411 0.5068 0.1887
vn 0.6082 0.7144 0.3461
vn -0.6069 -0.4113 -0.6801
vn 0.8327 -0.3853 -0.3977
vn -0.5859 0.5080 0.6314
vn 0.0000 0.9226 0.3857
vn 0.7298 0.6323 0.2598
vn -0.8854 -0.0269 0.4641
vn 0.3177 -0.3859 -0.8661
vn -0.0000 -0.3541 -0.9352
vn 0.8702 -0.4914 -0.0358
vn -0.0000 0.3818 0.9242
vn 0.0000 0.7463 0.6656
vn -0.0000 0.8982 0.4397
vn -0.8702 -0.4914 -0.0358
vn -0.7308 0.0708 0.6789
vn 0.0000 -0.3973 -0.9177
vn 0.8858 0.3347 0.3213
vn 0.8795 -0.4747 -0.0339
vn 0.8236 -0.4463 -0.3499
vn -0.6092 -0.4596 -0.6463
vn -0.0000 0.1184 0.9930
vn 0.5859 0.5080 0.6314
vn -0.6706 -0.4999 0.5480
vn -0.5792 -0.2715 0.7687
vn 0.3122 -0.4111 -0.8565
vn 0.8854 -0.0269 0.4641
vn 0.6706 -0.4999 0.5480
vn 0.5902 -0.5138 0.6227
vn 0.6647 0.3313 -0.6697
vn -0.8795 -0.4747 -0.0339
vn -0.5659 -0.3961 0.7231
vn 0.7308 0.0708 0.6789
vn 0.0000 0.2785 -0.9604
vn -0.0000 -0.2927 0.9562
vn 0.0000 -0.3356 0.9420
vn 0.9320 0.3622 -0.0153
vn -0.5902 -0.5138 0.6227
vn 0.0000 -0.2056 0.9786
vn 0.0000 -0.2455 0.9694
vn 0.5659 -0.3961 0.7231
vn -0.6647 0.3313 -0.6697
vn 0.5792 -0.2715 0.7687
vn 0.0000 0.2322 0.9727
vn 0.6956 0.3288 0.6387
vn -0.9320 0.3622 -0.0153
vn -0.6956 0.3288 0.6387
vn 0.5466 -0.0015 0.8374
vn 0.4983 -0.8670 0.0000
vn 1.0000 0.0001 0.0000
vn 0.1378 -0.9904 -0.0101
vn 0.4984 0.8669 -0.0019
vn 0.2228 -0.0117 0.9748
vn 0.1311 0.9914 -0.0038
vn 0.5438 0.0006 -0.8392
vn 0.2175 -0.0068 -0.9760
vn -0.9996 -0.0172 0.0241
vn -0.8680 -0.4959 0.0236
vn -0.9480 -0.0123 0.3181
vn -0.9634 -0.0122 -0.2679
vn -0.8863 0.4623 0.0279
vn -0.5466 -0.0015 0.8374
vn -1.0000 0.0001 0.0000
vn -0.4983 -0.8670 0.0000
vn -0.4984 0.8669 -0.0019
vn -0.1378 -0.9904 -0.0101
vn -0.1311 0.9914 -0.0038
vn -0.2228 -0.0117 0.9748
vn -0.5438 0.0006 -0.8392
vn -0.2175 -0.0068 -0.9760
vn 0.9996 -0.0172 0.0241
vn 0.9480 -0.0123 0.3181
vn 0.8680 -0.4959 0.0236
vn 0.8863 0.4623 0.0279
vn 0.9634 -0.0122 -0.2679
vn -0.5884 -0.8052 -0.0741
vn -0.6303 -0.6893 -0.3573
vn 0.6444 -0.7069 -0.2915
vn -0.9787 0.2004 0.0447
vn 0.7244 -0.6893 -0.0056
vn -0.9841 -0.1617 0.0737
vn 0.6155 -0.7409 0.2687
vn -0.5313 -0.8126 0.2398
vn -0.0001 -0.7766 -0.6300
vn -0.8052 0.2179 -0.5516
vn -0.0007 -0.1846 -0.9828
vn 0.8956 -0.1583 0.4157
vn 0.8201 0.2085 -0.5329
vn 0.9828 0.1481 0.1103
vn -0.6923 -0.2132 0.6894
vn -0.7357 0.5785 0.3522
vn 0.0013 0.3080 -0.9514
vn -0.8844 0.4510 0.1203
vn -0.0009 0.6743 -0.7384
vn 0.0673 -0.7912 0.6078
vn 0.9058 0.3998 0.1399
vn 0.7826 0.4936 0.3794
vn 0.0189 0.9973 0.0709
vn 0.1102 -0.2790 0.9539
vn 0.0124 0.9428 0.3331
vn 0.0666 0.2927 0.9539
vn -0.9858 -0.1675 -0.0096
vn -0.6925 -0.1127 -0.7125
vn -0.9880 -0.1546 0.0030
vn -0.6924 -0.1120 -0.7127
vn -0.7061 -0.1887 0.6826
vn -0.7070 -0.2045 0.6771
vn 0.9858 -0.1675 -0.0096
vn 0.6925 -0.1127 -0.7125
vn 0.6924 -0.1120 -0.7127
vn 0.9880 -0.1546 0.0030
vn 0.7061 -0.1887 0.6826
vn 0.7070 -0.2045 0.6771
vn 0.5884 -0.8052 -0.0741
vn -0.7244 -0.6893 -0.0056
vn -0.6444 -0.7069 -0.2915
vn -0.6155 -0.7409 0.2687
vn 0.6303 -0.6893 -0.3573
vn 0.5313 -0.8126 0.2398
vn 0.9787 0.2004 0.0447
vn 0.9841 -0.1617 0.0737
vn -0.8201 0.2085 -0.5329
vn -0.8956 -0.1583 0.4157
vn -0.9828 0.1481 0.1103
vn 0.8052 0.2179 -0.5516
vn 0.0001 -0.7766 -0.6300
vn 0.0007 -0.1846 -0.9828
vn 0.6923 -0.2132 0.6894
vn -0.0673 -0.7912 0.6078
vn -0.9058 0.3998 0.1399
vn -0.7826 0.4936 0.3794
vn -0.0189 0.9973 0.0709
vn 0.8844 0.4510 0.1203
vn 0.7357 0.5785 0.3522
vn -0.0013 0.3080 -0.9514
vn -0.1102 -0.2790 0.9539
vn 0.0009 0.6743 -0.7384
vn -0.0124 0.9428 0.3331
vn -0.0666 0.2927 0.9539
# 170 vertex normals

vt 0.1635 0.1685 0.0000
vt 0.0051 0.1685 0.0000
vt 0.0834 0.1516 0.0000
vt 0.7593 0.1685 0.0000
vt 0.8787 0.1516 0.0000
vt 0.9965 0.1685 0.0000
vt 0.5698 0.1516 0.0000
vt 0.5698 0.1685 0.0000
vt 0.0051 0.9968 0.0000
vt 0.0051 0.9939 0.0000
vt 0.1294 0.9772 0.0000
vt 0.0051 0.9909 0.0000
vt 0.2142 0.8489 0.0000
vt 0.0454 0.9151 0.0000
vt 0.0051 0.8064 0.0000
vt 0.1635 0.7480 0.0000
vt 0.0051 0.8739 0.0000
vt 0.5698 0.7310 0.0000
vt 0.0051 0.9536 0.0000
vt 0.0051 0.7429 0.0000
vt 0.8586 0.8862 0.0000
vt 0.6287 0.9959 0.0000
vt 0.0051 0.9130 0.0000
vt 0.0051 0.5993 0.0000
vt 0.7880 0.7737 0.0000
vt 0.7940 0.9959 0.0000
vt 0.1635 0.3673 0.0000
vt 0.8587 0.8295 0.0000
vt 0.9965 0.9959 0.0000
vt 0.7899 0.5664 0.0000
vt 0.1635 0.3653 0.0000
vt 0.0051 0.3653 0.0000
vt 0.5698 0.3673 0.0000
vt 0.9965 0.7945 0.0000
vt 0.9965 0.8799 0.0000
vt 0.9965 0.9248 0.0000
vt 0.8163 0.6294 0.0000
vt 0.0051 0.3472 0.0000
vt 0.5698 0.3472 0.0000
vt 0.1635 0.3472 0.0000
vt 0.9965 0.6296 0.0000
vt 0.7593 0.3673 0.0000
vt 0.8671 0.4300 0.0000
vt 0.7593 0.3472 0.0000
vt 0.8803 0.4499 0.0000
vt 0.9965 0.3673 0.0000
vt 0.9965 0.3472 0.0000
vt 0.9965 0.3928 0.0000
vt 0.9965 0.4849 0.0000
vt 0.6023 0.4700 0.0000
vt 0.5698 0.4480 0.0000
vt 0.5698 0.4700 0.0000
vt 0.5698 0.4198 0.0000
vt 0.5698 0.4973 0.0000
vt 0.6570 0.4700 0.0000
vt 0.5698 0.5260 0.0000
vt 0.5355 0.4700 0.0000
vt 0.4786 0.4700 0.0000
vt 0.5682 0.4716 0.0000
vt 0.6454 0.0022 0.0000
vt 0.6849 0.0022 0.0000
vt 0.6454 0.0672 0.0000
vt 0.5711 0.0221 0.0000
vt 0.5518 0.0022 0.0000
vt 0.7129 0.0022 0.0000
vt 0.6849 0.0672 0.0000
vt 0.7235 0.0221 0.0000
vt 0.5518 0.0221 0.0000
vt 0.5326 0.0221 0.0000
vt 0.5518 0.0865 0.0000
vt 0.7235 0.0672 0.0000
vt 0.6552 0.1178 0.0000
vt 0.7013 0.1178 0.0000
vt 0.5019 0.0022 0.0000
vt 0.6080 0.1178 0.0000
vt 0.5019 0.0221 0.0000
vt 0.5330 0.1239 0.0000
vt 0.5019 0.0672 0.0000
vt 0.3841 0.1114 0.0000
vt 0.2750 0.0277 0.0000
vt 0.3841 0.0277 0.0000
vt 0.2750 0.1114 0.0000
vt 0.4950 0.0277 0.0000
vt 0.4950 0.1114 0.0000
vt 0.6455 0.0022 0.0000
vt 0.6850 0.0022 0.0000
vt 0.5520 0.0022 0.0000
vt 0.6455 0.0672 0.0000
vt 0.5712 0.0221 0.0000
vt 0.6850 0.0672 0.0000
vt 0.5520 0.0221 0.0000
vt 0.7130 0.0022 0.0000
vt 0.7237 0.0221 0.0000
vt 0.5327 0.0221 0.0000
vt 0.5020 0.0022 0.0000
vt 0.6553 0.1178 0.0000
vt 0.5520 0.0865 0.0000
vt 0.6081 0.1178 0.0000
vt 0.7237 0.0672 0.0000
vt 0.5020 0.0221 0.0000
vt 0.7015 0.1178 0.0000
vt 0.5331 0.1239 0.0000
vt 0.5020 0.0672 0.0000
vt 0.3842 0.1114 0.0000
vt 0.3842 0.0277 0.0000
vt 0.2752 0.0277 0.0000
vt 0.4951 0.0277 0.0000
vt 0.2752 0.1114 0.0000
vt 0.4951 0.1114 0.0000
# 109 texture coords

g hayho_body
usemtl hayho_body
s 1
f 1/1/1 2/2/1 3/3/1 
f 4/4/2 3/5/2 5/6/2 
f 6/1/3 3/3/3 2/2/3 
f 7/4/4 3/7/4 8/8/4 
f 3/5/5 7/4/5 5/6/5 
f 8/8/6 3/7/6 6/1/6 
f 4/4/7 9/8/7 3/7/7 
f 9/8/8 1/1/8 3/7/8 
f 10/9/9 11/10/10 12/11/11 
f 10/9/9 13/11/12 11/10/10 
f 12/11/11 14/12/13 15/13/14 
f 11/10/10 13/11/12 14/12/13 
f 11/10/10 14/12/13 12/11/11 
f 15/13/14 16/14/15 17/15/16 
f 13/11/12 18/13/17 14/12/13 
f 15/13/14 14/12/13 16/14/15 
f 17/15/16 19/14/18 18/13/17 
f 15/13/14 17/15/16 20/16/19 
f 14/12/13 18/13/17 19/14/18 
f 16/14/15 21/17/20 17/15/16 
f 15/13/14 20/16/19 22/18/21 
f 14/12/13 19/14/18 23/19/22 
f 14/12/13 23/19/22 16/14/15 
f 18/13/17 24/16/23 17/15/16 
f 21/17/20 19/14/18 17/15/16 
f 20/16/19 17/15/16 25/20/24 
f 17/15/16 24/16/23 25/20/24 
f 22/18/21 26/21/25 15/22/26 
f 23/19/22 27/23/27 16/14/15 
f 27/23/27 21/17/20 16/14/15 
f 27/23/27 23/19/22 19/14/18 
f 19/14/18 21/17/20 27/23/27 
f 18/13/17 28/18/28 24/16/23 
f 20/16/19 25/20/24 29/24/29 
f 25/20/24 24/16/23 29/24/29 
f 22/18/21 30/25/30 26/21/25 
f 15/22/26 26/21/25 12/26/31 
f 28/18/28 18/22/32 31/21/33 
f 20/16/19 32/27/34 22/18/21 
f 20/16/19 29/24/29 32/27/34 
f 24/16/23 28/18/28 33/27/35 
f 30/25/30 34/28/36 26/21/25 
f 12/26/31 26/21/25 10/29/37 
f 18/22/32 13/26/38 31/21/33 
f 13/26/38 10/29/37 31/21/33 
f 22/18/21 35/30/39 30/25/30 
f 29/24/29 33/31/40 36/32/41 
f 29/24/29 36/32/41 32/27/34 
f 29/24/29 24/16/23 33/31/40 
f 28/18/28 37/33/42 33/27/35 
f 34/28/36 38/34/43 39/35/44 
f 26/21/25 40/36/45 10/29/37 
f 10/29/37 40/36/45 31/21/33 
f 26/21/25 34/28/36 40/36/45 
f 22/18/21 32/27/34 41/33/46 
f 22/18/21 41/33/46 35/30/39 
f 30/25/30 42/37/47 34/28/36 
f 34/28/36 42/37/47 38/34/43 
f 34/28/36 39/35/44 40/36/45 
f 30/25/30 35/30/39 42/37/47 
f 36/32/41 43/38/48 32/27/34 
f 36/32/41 33/31/40 43/38/48 
f 28/18/28 31/21/33 44/25/49 
f 37/33/42 45/39/50 46/40/51 
f 33/27/35 37/33/42 46/40/51 
f 41/33/46 32/27/34 47/40/52 
f 32/27/34 43/38/48 47/40/52 
f 38/34/43 42/37/47 48/41/53 
f 39/35/44 38/34/43 49/28/54 
f 31/21/33 40/36/45 49/28/54 
f 40/36/45 39/35/44 49/28/54 
f 31/21/33 49/28/54 44/25/49 
f 35/30/39 50/42/55 51/43/56 
f 33/31/40 46/40/57 43/38/48 
f 28/18/28 52/30/58 37/33/42 
f 28/18/28 44/25/49 52/30/58 
f 45/39/50 53/42/59 54/44/60 
f 37/33/42 53/42/59 45/39/50 
f 37/33/42 52/30/58 53/42/59 
f 46/40/51 45/39/50 6/1/61 
f 41/33/46 47/40/52 55/39/62 
f 41/33/46 50/42/55 35/30/39 
f 41/33/46 55/39/62 50/42/55 
f 42/37/47 56/45/63 48/41/53 
f 35/30/39 51/43/56 56/45/63 
f 35/30/39 56/45/63 42/37/47 
f 38/34/43 48/41/53 57/37/64 
f 44/25/49 49/28/54 57/37/64 
f 49/28/54 38/34/43 57/37/64 
f 44/25/49 57/37/64 52/30/58 
f 46/40/57 6/1/61 2/2/65 
f 43/38/48 2/2/65 47/40/52 
f 43/38/48 46/40/57 2/2/65 
f 54/44/60 58/46/66 59/47/67 
f 53/42/59 58/46/66 54/44/60 
f 45/39/50 8/8/68 6/1/61 
f 55/39/62 60/44/69 50/42/55 
f 50/42/55 58/46/66 51/43/56 
f 50/42/55 60/44/69 58/46/66 
f 56/45/63 61/48/70 62/49/71 
f 56/45/63 62/49/71 48/41/53 
f 51/43/56 61/48/70 56/45/63 
f 51/43/56 58/46/66 61/48/70 
f 57/37/64 48/41/53 63/45/72 
f 62/49/71 61/48/70 63/45/72 
f 62/49/71 63/45/72 48/41/53 
f 57/37/64 63/45/72 52/30/58 
f 47/40/52 2/2/65 1/1/73 
f 47/40/52 1/1/73 55/39/62 
f 59/47/67 58/46/66 60/44/69 
f 53/42/59 52/30/58 64/43/74 
f 64/43/74 63/45/72 61/48/70 
f 64/43/74 61/48/70 58/46/66 
f 64/43/74 58/46/66 53/42/59 
f 64/43/74 52/30/58 63/45/72 
f 54/44/60 5/6/75 7/4/76 
f 7/4/76 45/39/50 54/44/60 
f 59/47/67 60/44/69 5/6/75 
f 59/47/67 5/6/75 54/44/60 
f 45/39/50 7/4/76 8/8/68 
f 1/1/73 9/8/77 55/39/62 
f 60/44/69 4/4/78 5/6/75 
f 4/4/78 55/39/62 9/8/77 
f 55/39/62 4/4/78 60/44/69 
f 65/50/79 66/51/80 67/52/81 
f 65/50/79 68/53/82 66/51/80 
f 65/50/79 67/52/81 69/54/83 
f 65/50/79 70/55/84 68/53/82 
f 65/50/79 69/54/83 71/56/85 
f 65/50/79 71/56/85 70/55/84 
f 66/51/80 72/57/86 67/52/81 
f 66/51/80 68/53/82 72/57/86 
f 69/54/83 72/57/86 71/56/85 
f 69/54/83 67/52/81 72/57/86 
f 68/53/82 73/58/87 72/57/86 
f 72/57/86 73/58/87 71/56/85 
f 74/59/88 68/53/89 70/55/90 
f 74/59/88 73/58/91 68/53/89 
f 74/59/88 70/55/90 71/56/92 
f 74/59/88 71/56/92 73/58/91 
f 75/50/93 76/52/94 77/51/95 
f 75/50/93 78/54/96 76/52/94 
f 75/50/93 77/51/95 79/53/97 
f 75/50/93 80/56/98 78/54/96 
f 75/50/93 79/53/97 81/55/99 
f 75/50/93 81/55/99 80/56/98 
f 76/52/94 82/57/100 77/51/95 
f 76/52/94 78/54/96 82/57/100 
f 78/54/96 80/56/98 82/57/100 
f 77/51/95 82/57/100 79/53/97 
f 80/56/98 83/58/101 82/57/100 
f 82/57/100 83/58/101 79/53/97 
f 84/59/102 81/55/103 79/53/104 
f 84/59/102 80/56/105 81/55/103 
f 84/59/102 79/53/104 83/58/106 
f 84/59/102 83/58/106 80/56/105 
f 85/60/107 86/61/108 87/61/109 
f 85/60/107 88/62/110 86/61/108 
f 85/60/107 87/61/109 89/60/111 
f 85/60/107 90/63/112 88/62/110 
f 85/60/107 89/60/111 91/64/113 
f 85/60/107 92/64/114 90/63/112 
f 85/60/107 91/64/113 92/64/114 
f 86/61/108 93/65/115 87/61/109 
f 86/61/108 88/62/110 94/66/116 
f 86/61/108 95/67/117 93/65/115 
f 86/61/108 94/66/116 95/67/117 
f 93/65/115 95/67/117 87/61/109 
f 89/60/111 96/68/118 91/64/113 
f 89/60/111 87/61/109 97/66/119 
f 89/60/111 98/62/120 96/68/118 
f 89/60/111 97/66/119 98/62/120 
f 87/61/109 95/67/117 97/66/119 
f 90/63/112 92/64/114 99/69/121 
f 90/63/112 100/70/122 88/62/110 
f 90/63/112 99/69/121 100/70/122 
f 94/66/116 101/71/123 95/67/117 
f 94/66/116 88/62/110 102/72/124 
f 94/66/116 103/73/125 101/71/123 
f 94/66/116 102/72/124 103/73/125 
f 101/71/123 103/73/125 97/66/119 
f 101/71/123 97/66/119 95/67/117 
f 91/64/113 96/68/118 104/74/126 
f 91/64/113 104/74/126 92/64/114 
f 92/64/114 104/74/126 99/69/121 
f 98/62/120 97/66/119 105/72/127 
f 98/62/120 106/70/128 96/68/118 
f 98/62/120 105/72/127 107/75/129 
f 98/62/120 107/75/129 106/70/128 
f 88/62/110 100/70/122 107/75/129 
f 88/62/110 107/75/129 102/72/124 
f 105/72/127 97/66/119 103/73/125 
f 104/74/126 108/76/130 99/69/121 
f 104/74/126 96/68/118 108/76/130 
f 96/68/118 106/70/128 108/76/130 
f 100/70/122 109/77/131 107/75/129 
f 100/70/122 99/69/121 110/78/132 
f 100/70/122 110/78/132 109/77/131 
f 110/78/132 108/76/130 106/70/128 
f 110/78/132 99/69/121 108/76/130 
f 110/78/132 106/70/128 109/77/131 
f 109/77/131 106/70/128 107/75/129 
f 111/79/133 103/80/134 102/81/135 
f 111/79/133 112/82/136 103/80/134 
f 111/79/133 102/81/135 107/83/137 
f 111/79/133 107/83/137 113/84/138 
f 114/79/139 103/83/140 112/84/141 
f 114/79/139 105/81/142 103/83/140 
f 114/79/139 107/80/143 105/81/142 
f 114/79/139 113/82/144 107/80/143 
f 115/85/145 116/85/146 117/86/147 
f 115/85/145 118/87/148 116/85/146 
f 115/85/145 117/86/147 119/86/149 
f 115/85/145 120/87/150 118/87/148 
f 115/85/145 119/86/149 121/88/151 
f 115/85/145 122/89/152 120/87/150 
f 115/85/145 121/88/151 122/89/152 
f 116/85/146 123/90/153 117/86/147 
f 116/85/146 118/87/148 124/91/154 
f 116/85/146 125/88/155 123/90/153 
f 116/85/146 124/91/154 125/88/155 
f 119/86/149 126/90/156 121/88/151 
f 119/86/149 117/86/147 127/92/157 
f 119/86/149 128/93/158 126/90/156 
f 119/86/149 127/92/157 128/93/158 
f 117/86/147 123/90/153 128/93/158 
f 117/86/147 128/93/158 127/92/157 
f 120/87/150 122/89/152 129/94/159 
f 120/87/150 130/95/160 118/87/148 
f 120/87/150 129/94/159 130/95/160 
f 118/87/148 130/95/160 124/91/154 
f 125/88/155 131/96/161 123/90/153 
f 125/88/155 124/91/154 132/97/162 
f 125/88/155 133/98/163 131/96/161 
f 125/88/155 132/97/162 133/98/163 
f 121/88/151 126/90/156 134/96/164 
f 121/88/151 135/97/165 122/89/152 
f 121/88/151 134/96/164 133/98/163 
f 121/88/151 133/98/163 135/97/165 
f 122/89/152 135/97/165 129/94/159 
f 128/93/158 123/90/153 136/99/166 
f 128/93/158 136/99/166 126/90/156 
f 130/95/160 137/100/167 124/91/154 
f 130/95/160 129/94/159 137/100/167 
f 124/91/154 137/100/167 132/97/162 
f 131/96/161 138/101/168 123/90/153 
f 138/101/168 134/96/164 126/90/156 
f 138/101/168 126/90/156 136/99/166 
f 138/101/168 136/99/166 123/90/153 
f 133/98/163 139/102/169 135/97/165 
f 133/98/163 132/97/162 139/102/169 
f 129/94/159 140/103/170 137/100/167 
f 129/94/159 135/97/165 140/103/170 
f 140/103/170 132/97/162 137/100/167 
f 140/103/170 135/97/165 139/102/169 
f 140/103/170 139/102/169 132/97/162 
f 141/104/139 134/105/142 138/106/140 
f 141/104/139 133/107/143 134/105/142 
f 141/104/139 138/106/140 142/108/141 
f 141/104/139 143/109/144 133/107/143 
f 144/104/133 138/107/134 131/105/135 
f 144/104/133 142/109/136 138/107/134 
f 144/104/133 131/105/135 133/106/137 
f 144/104/133 133/106/137 143/108/138 
# 264 faces

